<?xml version="1.0" encoding="utf-8"?>
<!-- Generator: Adobe Illustrator 16.0.0, SVG Export Plug-In . SVG Version: 6.00 Build 0)  -->
<!DOCTYPE svg PUBLIC "-//W3C//DTD SVG 1.1//EN" "http://www.w3.org/Graphics/SVG/1.1/DTD/svg11.dtd">
<svg version="1.1" id="Layer_1" xmlns="http://www.w3.org/2000/svg" xmlns:xlink="http://www.w3.org/1999/xlink" x="0px" y="0px"
	 width="297.64px" height="419.531px" viewBox="0 0 297.64 419.531" enable-background="new 0 0 297.64 419.531"
	 xml:space="preserve">
<path fill="#071A52" d="M249.611,300.75c26.525,0,48.029-21.504,48.029-48.029c0-22.785-15.873-41.852-37.162-46.777
	c-0.436-48.212-39.646-87.163-87.961-87.163c-33.17,0-62.048,18.361-77.037,45.472c-4.56-1.973-9.587-3.072-14.872-3.072
	c-19.038,0-34.751,14.197-37.157,32.579C18.679,198.671,0,220.518,0,246.734c0,29.832,24.184,54.016,54.015,54.016
	C62.325,300.75,243.918,300.75,249.611,300.75z"/>
</svg>
